<?xml version="1.0" encoding="utf-8"?>
<!-- Generator: Adobe Illustrator 23.0.2, SVG Export Plug-In . SVG Version: 6.00 Build 0)  -->
<svg version="1.1" id="Capa_1" xmlns="http://www.w3.org/2000/svg" xmlns:xlink="http://www.w3.org/1999/xlink" x="0px" y="0px"
	 viewBox="0 0 45.3 46" style="enable-background:new 0 0 45.3 46;" xml:space="preserve">
<style type="text/css">
	.st0{fill:#222221;}
	.st1{fill:#FFFFFF;}
</style>
<g id="XMLID_1683_">
	<path id="XMLID_1692_" class="st0" d="M22.7,42L22.7,42c-10.5,0-19-8.5-19-19v0c0-10.5,8.5-19,19-19l0,0c10.5,0,19,8.5,19,19v0
		C41.7,33.5,33.2,42,22.7,42z"/>
	<g id="XMLID_1684_">
		<path id="XMLID_1689_" class="st1" d="M22.7,14.4c2.8,0,3.1,0,4.2,0.1c1,0,1.6,0.2,1.9,0.4c0.5,0.2,0.8,0.4,1.2,0.8
			c0.4,0.4,0.6,0.7,0.8,1.2c0.1,0.4,0.3,0.9,0.4,1.9c0.1,1.1,0.1,1.4,0.1,4.2s0,3.1-0.1,4.2c0,1-0.2,1.6-0.4,1.9
			c-0.2,0.5-0.4,0.8-0.8,1.2c-0.4,0.4-0.7,0.6-1.2,0.8c-0.4,0.1-0.9,0.3-1.9,0.4c-1.1,0.1-1.4,0.1-4.2,0.1c-2.8,0-3.1,0-4.2-0.1
			c-1,0-1.6-0.2-1.9-0.4c-0.5-0.2-0.8-0.4-1.2-0.8c-0.4-0.4-0.6-0.7-0.8-1.2c-0.1-0.4-0.3-0.9-0.4-1.9c-0.1-1.1-0.1-1.4-0.1-4.2
			s0-3.1,0.1-4.2c0-1,0.2-1.6,0.4-1.9c0.2-0.5,0.4-0.8,0.8-1.2c0.4-0.4,0.7-0.6,1.2-0.8c0.4-0.1,0.9-0.3,1.9-0.4
			C19.6,14.5,19.9,14.4,22.7,14.4 M22.7,12.6c-2.8,0-3.2,0-4.3,0.1c-1.1,0.1-1.9,0.2-2.5,0.5c-0.7,0.3-1.3,0.6-1.8,1.2
			s-0.9,1.2-1.2,1.8c-0.3,0.7-0.4,1.4-0.5,2.5c-0.1,1.1-0.1,1.5-0.1,4.3c0,2.8,0,3.2,0.1,4.3c0.1,1.1,0.2,1.9,0.5,2.5
			c0.3,0.7,0.6,1.3,1.2,1.8s1.2,0.9,1.8,1.2c0.7,0.3,1.4,0.4,2.5,0.5c1.1,0.1,1.5,0.1,4.3,0.1c2.8,0,3.2,0,4.3-0.1
			c1.1-0.1,1.9-0.2,2.5-0.5c0.7-0.3,1.3-0.6,1.8-1.2c0.6-0.6,0.9-1.2,1.2-1.8c0.3-0.7,0.4-1.4,0.5-2.5c0.1-1.1,0.1-1.5,0.1-4.3
			c0-2.8,0-3.2-0.1-4.3c-0.1-1.1-0.2-1.9-0.5-2.5c-0.3-0.7-0.6-1.3-1.2-1.8c-0.6-0.6-1.2-0.9-1.8-1.2c-0.7-0.3-1.4-0.4-2.5-0.5
			C25.9,12.6,25.5,12.6,22.7,12.6"/>
		<path id="XMLID_1686_" class="st1" d="M22.7,17.6c-3,0-5.4,2.4-5.4,5.4c0,3,2.4,5.4,5.4,5.4c3,0,5.4-2.4,5.4-5.4
			C28,20,25.6,17.6,22.7,17.6 M22.7,26.5c-1.9,0-3.5-1.6-3.5-3.5c0-1.9,1.6-3.5,3.5-3.5s3.5,1.6,3.5,3.5
			C26.1,24.9,24.6,26.5,22.7,26.5"/>
		<path id="XMLID_1685_" class="st1" d="M29.5,17.4c0,0.7-0.6,1.3-1.3,1.3c-0.7,0-1.3-0.6-1.3-1.3c0-0.7,0.6-1.3,1.3-1.3
			C28.9,16.2,29.5,16.7,29.5,17.4"/>
	</g>
</g>
</svg>
